<svg width="1598" height="800" viewBox="0 0 1598 800" fill="none" xmlns="http://www.w3.org/2000/svg">
<path d="M798.011 1.03564L798.599 328.703V471.511L798.041 799" stroke="white" stroke-opacity="0.2" stroke-width="0.4" stroke-linecap="round" stroke-linejoin="round"/>
<path d="M399.42 799L727.175 471.511V328.703L398.382 1.03564" stroke="white" stroke-opacity="0.2" stroke-width="0.4" stroke-linecap="round" stroke-linejoin="round"/>
<path d="M1197.64 1.03564L870.032 328.703V471.511L1196.66 799" stroke="white" stroke-opacity="0.2" stroke-width="0.4" stroke-linecap="round" stroke-linejoin="round"/>
<path d="M0.338013 599.713L512.889 471.512V328.702L0.486348 200.869" stroke="white" stroke-opacity="0.2" stroke-width="0.4" stroke-linecap="round" stroke-linejoin="round"/>
<path d="M0.338013 472.652L12.8971 471.511V328.702L0.338013 327.564" stroke="white" stroke-opacity="0.2" stroke-width="0.4" stroke-linecap="round" stroke-linejoin="round"/>
<path d="M0.338013 479.917L84.3231 471.511V328.703L0.338013 320.319" stroke="white" stroke-opacity="0.2" stroke-width="0.4" stroke-linecap="round" stroke-linejoin="round"/>
<path d="M0.338013 488.791L155.749 471.511V328.703L0.338013 311.465" stroke="white" stroke-opacity="0.2" stroke-width="0.4" stroke-linecap="round" stroke-linejoin="round"/>
<path d="M0.338013 499.888L227.18 471.511V328.703L0.338013 300.4" stroke="white" stroke-opacity="0.2" stroke-width="0.4" stroke-linecap="round" stroke-linejoin="round"/>
<path d="M0.338013 514.15L298.606 471.511V328.703L0.338013 286.172" stroke="white" stroke-opacity="0.2" stroke-width="0.4" stroke-linecap="round" stroke-linejoin="round"/>
<path d="M0.338013 533.164L370.032 471.51V328.702L0.338013 267.205" stroke="white" stroke-opacity="0.2" stroke-width="0.4" stroke-linecap="round" stroke-linejoin="round"/>
<path d="M0.338013 559.788L441.465 471.512V328.702L0.338013 240.654" stroke="white" stroke-opacity="0.2" stroke-width="0.4" stroke-linecap="round" stroke-linejoin="round"/>
<path d="M0.338013 666.238L584.315 471.511V328.702L0.338013 134.474" stroke="white" stroke-opacity="0.2" stroke-width="0.4" stroke-linecap="round" stroke-linejoin="round"/>
<path d="M0.802797 799L655.748 471.511V328.703L0.338013 1.82544" stroke="white" stroke-opacity="0.2" stroke-width="0.4" stroke-linecap="round" stroke-linejoin="round"/>
<path d="M1596.87 472.652L1584.31 471.511V328.702L1596.87 327.564" stroke="white" stroke-opacity="0.2" stroke-width="0.4" stroke-linecap="round" stroke-linejoin="round"/>
<path d="M1596.87 479.917L1512.88 471.511V328.703L1596.87 320.315" stroke="white" stroke-opacity="0.2" stroke-width="0.4" stroke-linecap="round" stroke-linejoin="round"/>
<path d="M1596.87 488.799L1441.46 471.511V328.703L1596.87 311.46" stroke="white" stroke-opacity="0.2" stroke-width="0.4" stroke-linecap="round" stroke-linejoin="round"/>
<path d="M1596.87 499.899L1370.03 471.511V328.703L1596.87 300.388" stroke="white" stroke-opacity="0.2" stroke-width="0.4" stroke-linecap="round" stroke-linejoin="round"/>
<path d="M1596.87 514.169L1298.6 471.511V328.702L1596.87 286.153" stroke="white" stroke-opacity="0.2" stroke-width="0.4" stroke-linecap="round" stroke-linejoin="round"/>
<path d="M1596.87 267.173L1227.18 328.702L1227.18 471.511L1596.87 533.199" stroke="white" stroke-opacity="0.2" stroke-width="0.4" stroke-linecap="round" stroke-linejoin="round"/>
<path d="M1596.87 240.593L1155.75 328.703L1155.74 471.511L1597 559.872" stroke="white" stroke-opacity="0.2" stroke-width="0.4" stroke-linecap="round" stroke-linejoin="round"/>
<path d="M1596.99 200.69L1084.33 328.702L1084.32 471.51L1596.87 599.821" stroke="white" stroke-opacity="0.2" stroke-width="0.4" stroke-linecap="round" stroke-linejoin="round"/>
<path d="M1596.99 134.207L1012.89 328.702V471.511L1596.87 666.459" stroke="white" stroke-opacity="0.2" stroke-width="0.4" stroke-linecap="round" stroke-linejoin="round"/>
<path d="M1596.87 1.24048L941.46 328.702V471.51L1595.28 799" stroke="white" stroke-opacity="0.2" stroke-width="0.4" stroke-linecap="round" stroke-linejoin="round"/>
<path d="M1596.87 135.787H0.338013" stroke="white" stroke-opacity="0.2" stroke-width="0.4" stroke-linecap="round" stroke-linejoin="round"/>
<path d="M1596.87 264.851H0.338013" stroke="white" stroke-opacity="0.2" stroke-width="0.4" stroke-linecap="round" stroke-linejoin="round"/>
<path d="M1596.87 221.171H0.338013" stroke="white" stroke-opacity="0.2" stroke-width="0.4" stroke-linecap="round" stroke-linejoin="round"/>
<path d="M1596.87 172.062H0.338013" stroke="white" stroke-opacity="0.2" stroke-width="0.4" stroke-linecap="round" stroke-linejoin="round"/>
<path d="M1596.87 328.711H0.338013" stroke="white" stroke-opacity="0.2" stroke-width="0.4" stroke-linecap="round" stroke-linejoin="round"/>
<path d="M1596.87 85.7751H0.338013" stroke="white" stroke-opacity="0.2" stroke-width="0.4" stroke-linecap="round" stroke-linejoin="round"/>
<path d="M1596.87 199.584H0.338013" stroke="white" stroke-opacity="0.2" stroke-width="0.4" stroke-linecap="round" stroke-linejoin="round"/>
<path d="M1596.87 238.565H0.338013" stroke="white" stroke-opacity="0.2" stroke-width="0.4" stroke-linecap="round" stroke-linejoin="round"/>
<path d="M1596.87 309.208H0.338013" stroke="white" stroke-opacity="0.2" stroke-width="0.4" stroke-linecap="round" stroke-linejoin="round"/>
<path d="M1596.87 298.054H0.338013" stroke="white" stroke-opacity="0.2" stroke-width="0.4" stroke-linecap="round" stroke-linejoin="round"/>
<path d="M1596.87 291.386H0.338013" stroke="white" stroke-opacity="0.2" stroke-width="0.4" stroke-linecap="round" stroke-linejoin="round"/>
<path d="M1596.87 303.956H0.338013" stroke="white" stroke-opacity="0.2" stroke-width="0.4" stroke-linecap="round" stroke-linejoin="round"/>
<path d="M1596.87 318.164H0.338013" stroke="white" stroke-opacity="0.2" stroke-width="0.4" stroke-linecap="round" stroke-linejoin="round"/>
<path d="M1596.87 313.918H0.338013" stroke="white" stroke-opacity="0.2" stroke-width="0.4" stroke-linecap="round" stroke-linejoin="round"/>
<path d="M1596.87 322.007H0.338013" stroke="white" stroke-opacity="0.2" stroke-width="0.4" stroke-linecap="round" stroke-linejoin="round"/>
<path d="M1596.87 325.51H0.338013" stroke="white" stroke-opacity="0.2" stroke-width="0.4" stroke-linecap="round" stroke-linejoin="round"/>
<path d="M1596.87 12.4184H0.338013" stroke="white" stroke-opacity="0.2" stroke-width="0.4" stroke-linecap="round" stroke-linejoin="round"/>
<path d="M1596.87 275.026H0.338013" stroke="white" stroke-opacity="0.2" stroke-width="0.4" stroke-linecap="round" stroke-linejoin="round"/>
<path d="M1596.87 252.872H0.338013" stroke="white" stroke-opacity="0.2" stroke-width="0.4" stroke-linecap="round" stroke-linejoin="round"/>
<path d="M1596.87 283.777H0.338013" stroke="white" stroke-opacity="0.2" stroke-width="0.4" stroke-linecap="round" stroke-linejoin="round"/>
<path d="M0.338013 471.511H1596.87" stroke="white" stroke-opacity="0.2" stroke-width="0.4" stroke-linecap="round" stroke-linejoin="round"/>
<path d="M0.338013 435.812H1596.87" stroke="white" stroke-opacity="0.2" stroke-width="0.4" stroke-linecap="round" stroke-linejoin="round"/>
<path d="M0.338013 400.113H1596.87" stroke="white" stroke-opacity="0.2" stroke-width="0.4" stroke-linecap="round" stroke-linejoin="round"/>
<path d="M0.338013 364.409H1596.87" stroke="white" stroke-opacity="0.2" stroke-width="0.4" stroke-linecap="round" stroke-linejoin="round"/>
<path d="M0.338013 328.711H1596.87" stroke="white" stroke-opacity="0.2" stroke-width="0.4" stroke-linecap="round" stroke-linejoin="round"/>
<path d="M1596.52 471.511H0.340088" stroke="white" stroke-opacity="0.2" stroke-width="0.4" stroke-linecap="round" stroke-linejoin="round"/>
<path d="M1596.87 474.72H0.338013" stroke="white" stroke-opacity="0.2" stroke-width="0.4" stroke-linecap="round" stroke-linejoin="round"/>
<path d="M1596.87 478.23H0.338013" stroke="white" stroke-opacity="0.2" stroke-width="0.4" stroke-linecap="round" stroke-linejoin="round"/>
<path d="M1596.87 482.089H0.338013" stroke="white" stroke-opacity="0.2" stroke-width="0.4" stroke-linecap="round" stroke-linejoin="round"/>
<path d="M1596.87 486.342H0.338013" stroke="white" stroke-opacity="0.2" stroke-width="0.4" stroke-linecap="round" stroke-linejoin="round"/>
<path d="M1596.87 491.064H0.338013" stroke="white" stroke-opacity="0.2" stroke-width="0.4" stroke-linecap="round" stroke-linejoin="round"/>
<path d="M1596.87 496.331H0.338013" stroke="white" stroke-opacity="0.2" stroke-width="0.4" stroke-linecap="round" stroke-linejoin="round"/>
<path d="M1596.87 502.249H0.338013" stroke="white" stroke-opacity="0.2" stroke-width="0.4" stroke-linecap="round" stroke-linejoin="round"/>
<path d="M1596.87 508.936H0.338013" stroke="white" stroke-opacity="0.2" stroke-width="0.4" stroke-linecap="round" stroke-linejoin="round"/>
<path d="M1596.87 516.56H0.338013" stroke="white" stroke-opacity="0.2" stroke-width="0.4" stroke-linecap="round" stroke-linejoin="round"/>
<path d="M1596.87 525.335H0.338013" stroke="white" stroke-opacity="0.2" stroke-width="0.4" stroke-linecap="round" stroke-linejoin="round"/>
<path d="M1596.87 535.54H0.338013" stroke="white" stroke-opacity="0.2" stroke-width="0.4" stroke-linecap="round" stroke-linejoin="round"/>
<path d="M1596.87 547.549H0.338013" stroke="white" stroke-opacity="0.2" stroke-width="0.4" stroke-linecap="round" stroke-linejoin="round"/>
<path d="M1596.87 561.896H0.338013" stroke="white" stroke-opacity="0.2" stroke-width="0.4" stroke-linecap="round" stroke-linejoin="round"/>
<path d="M1596.87 579.336H0" stroke="white" stroke-opacity="0.2" stroke-width="0.4" stroke-linecap="round" stroke-linejoin="round"/>
<path d="M1596.87 600.982H0.338013" stroke="white" stroke-opacity="0.2" stroke-width="0.4" stroke-linecap="round" stroke-linejoin="round"/>
<path d="M1596.87 628.577H0.338013" stroke="white" stroke-opacity="0.2" stroke-width="0.4" stroke-linecap="round" stroke-linejoin="round"/>
<path d="M1596.87 664.957H0.338013" stroke="white" stroke-opacity="0.2" stroke-width="0.4" stroke-linecap="round" stroke-linejoin="round"/>
<path d="M1596.87 715.108H0.338013" stroke="white" stroke-opacity="0.2" stroke-width="0.4" stroke-linecap="round" stroke-linejoin="round"/>
<path d="M1596.87 788.678H0.338013" stroke="white" stroke-opacity="0.2" stroke-width="0.4" stroke-linecap="round" stroke-linejoin="round"/>
</svg>
