<svg width="154" height="46" viewBox="0 0 154 46" fill="none" xmlns="http://www.w3.org/2000/svg">
<path d="M89.168 5.14C90.9632 5.14 92.3756 5.569 93.4052 6.427C94.4348 7.285 94.9496 8.4664 94.9496 9.9712C94.9496 11.476 94.4348 12.6574 93.4052 13.5154C92.3756 14.3734 90.9632 14.8024 89.168 14.8024H85.7426V19H83.7626V5.14H89.168ZM89.1086 13.0798C90.3626 13.0798 91.3196 12.8158 91.9796 12.2878C92.6396 11.7466 92.9696 10.9744 92.9696 9.9712C92.9696 8.968 92.6396 8.2024 91.9796 7.6744C91.3196 7.1332 90.3626 6.8626 89.1086 6.8626H85.7426V13.0798H89.1086ZM102.275 17.4556C103.529 17.4556 104.539 17.0332 105.304 16.1884L106.334 17.416C105.872 17.9704 105.284 18.3928 104.572 18.6832C103.872 18.9736 103.087 19.1188 102.215 19.1188C101.107 19.1188 100.123 18.8944 99.2652 18.4456C98.4072 17.9836 97.7406 17.3434 97.2654 16.525C96.8034 15.7066 96.5724 14.7826 96.5724 13.753C96.5724 12.7366 96.7968 11.8192 97.2456 11.0008C97.7076 10.1824 98.3346 9.5488 99.1266 9.1C99.9318 8.638 100.836 8.407 101.839 8.407C102.79 8.407 103.654 8.6248 104.433 9.0604C105.212 9.4828 105.832 10.0834 106.294 10.8622C106.756 11.641 106.994 12.5386 107.007 13.555L98.6712 15.1786C98.9352 15.9046 99.3774 16.4656 99.9978 16.8616C100.631 17.2576 101.39 17.4556 102.275 17.4556ZM101.839 10.0108C101.179 10.0108 100.585 10.1626 100.057 10.4662C99.5424 10.7698 99.1398 11.1988 98.8494 11.7532C98.559 12.2944 98.4138 12.928 98.4138 13.654V13.852L105.126 12.5848C104.954 11.8192 104.572 11.1988 103.978 10.7236C103.384 10.2484 102.671 10.0108 101.839 10.0108ZM111.488 10.2682C111.818 9.661 112.306 9.199 112.953 8.8822C113.6 8.5654 114.385 8.407 115.309 8.407V10.2484C115.204 10.2352 115.058 10.2286 114.874 10.2286C113.844 10.2286 113.032 10.5388 112.438 11.1592C111.857 11.7664 111.567 12.6376 111.567 13.7728V19H109.666V8.506H111.488V10.2682ZM121.216 5.7538C120.081 5.7538 119.513 6.3676 119.513 7.5952V8.506H122.582V10.0702H119.553V19H117.652V7.5754C117.652 6.5326 117.956 5.7076 118.563 5.1004C119.17 4.4932 120.021 4.1896 121.117 4.1896C121.539 4.1896 121.935 4.2424 122.305 4.348C122.675 4.4536 122.991 4.6054 123.255 4.8034L122.681 6.2488C122.246 5.9188 121.757 5.7538 121.216 5.7538ZM128.939 17.4556C130.193 17.4556 131.203 17.0332 131.968 16.1884L132.998 17.416C132.536 17.9704 131.949 18.3928 131.236 18.6832C130.536 18.9736 129.751 19.1188 128.88 19.1188C127.771 19.1188 126.787 18.8944 125.929 18.4456C125.071 17.9836 124.405 17.3434 123.93 16.525C123.468 15.7066 123.237 14.7826 123.237 13.753C123.237 12.7366 123.461 11.8192 123.91 11.0008C124.372 10.1824 124.999 9.5488 125.791 9.1C126.596 8.638 127.5 8.407 128.503 8.407C129.454 8.407 130.318 8.6248 131.097 9.0604C131.876 9.4828 132.496 10.0834 132.958 10.8622C133.42 11.641 133.658 12.5386 133.671 13.555L125.335 15.1786C125.599 15.9046 126.042 16.4656 126.662 16.8616C127.296 17.2576 128.055 17.4556 128.939 17.4556ZM128.503 10.0108C127.843 10.0108 127.249 10.1626 126.721 10.4662C126.207 10.7698 125.804 11.1988 125.514 11.7532C125.223 12.2944 125.078 12.928 125.078 13.654V13.852L131.79 12.5848C131.619 11.8192 131.236 11.1988 130.642 10.7236C130.048 10.2484 129.335 10.0108 128.503 10.0108ZM140.904 19.1188C139.835 19.1188 138.878 18.8878 138.033 18.4258C137.202 17.9638 136.548 17.3302 136.073 16.525C135.598 15.7066 135.36 14.7826 135.36 13.753C135.36 12.7234 135.598 11.806 136.073 11.0008C136.548 10.1824 137.202 9.5488 138.033 9.1C138.878 8.638 139.835 8.407 140.904 8.407C141.855 8.407 142.7 8.5984 143.439 8.9812C144.191 9.364 144.772 9.9184 145.181 10.6444L143.736 11.575C143.406 11.0734 142.997 10.6972 142.508 10.4464C142.02 10.1956 141.479 10.0702 140.885 10.0702C140.198 10.0702 139.578 10.222 139.023 10.5256C138.482 10.8292 138.053 11.2648 137.736 11.8324C137.433 12.3868 137.281 13.027 137.281 13.753C137.281 14.4922 137.433 15.1456 137.736 15.7132C138.053 16.2676 138.482 16.6966 139.023 17.0002C139.578 17.3038 140.198 17.4556 140.885 17.4556C141.479 17.4556 142.02 17.3302 142.508 17.0794C142.997 16.8286 143.406 16.4524 143.736 15.9508L145.181 16.8616C144.772 17.5876 144.191 18.1486 143.439 18.5446C142.7 18.9274 141.855 19.1188 140.904 19.1188ZM153.031 18.3862C152.754 18.6238 152.41 18.8086 152.001 18.9406C151.592 19.0594 151.17 19.1188 150.734 19.1188C149.678 19.1188 148.86 18.835 148.279 18.2674C147.698 17.6998 147.408 16.888 147.408 15.832V6.2092H149.308V8.506H152.318V10.0702H149.308V15.7528C149.308 16.3204 149.447 16.756 149.724 17.0596C150.015 17.3632 150.424 17.515 150.952 17.515C151.533 17.515 152.028 17.35 152.437 17.02L153.031 18.3862ZM83.7626 28.14H89.6036C91.0688 28.14 92.369 28.4304 93.5042 29.0112C94.6394 29.592 95.5172 30.4104 96.1376 31.4664C96.7712 32.5092 97.088 33.7104 97.088 35.07C97.088 36.4296 96.7712 37.6374 96.1376 38.6934C95.5172 39.7362 94.6394 40.548 93.5042 41.1288C92.369 41.7096 91.0688 42 89.6036 42H83.7626V28.14ZM89.4848 40.2774C90.6068 40.2774 91.5902 40.0596 92.435 39.624C93.293 39.1884 93.953 38.5812 94.415 37.8024C94.877 37.0104 95.108 36.0996 95.108 35.07C95.108 34.0404 94.877 33.1362 94.415 32.3574C93.953 31.5654 93.293 30.9516 92.435 30.516C91.5902 30.0804 90.6068 29.8626 89.4848 29.8626H85.7426V40.2774H89.4848ZM104.576 40.4556C105.83 40.4556 106.84 40.0332 107.605 39.1884L108.635 40.416C108.173 40.9704 107.585 41.3928 106.873 41.6832C106.173 41.9736 105.388 42.1188 104.516 42.1188C103.408 42.1188 102.424 41.8944 101.566 41.4456C100.708 40.9836 100.042 40.3434 99.5664 39.525C99.1044 38.7066 98.8734 37.7826 98.8734 36.753C98.8734 35.7366 99.0978 34.8192 99.5466 34.0008C100.009 33.1824 100.636 32.5488 101.428 32.1C102.233 31.638 103.137 31.407 104.14 31.407C105.091 31.407 105.955 31.6248 106.734 32.0604C107.513 32.4828 108.133 33.0834 108.595 33.8622C109.057 34.641 109.295 35.5386 109.308 36.555L100.972 38.1786C101.236 38.9046 101.678 39.4656 102.299 39.8616C102.932 40.2576 103.691 40.4556 104.576 40.4556ZM104.14 33.0108C103.48 33.0108 102.886 33.1626 102.358 33.4662C101.843 33.7698 101.441 34.1988 101.15 34.7532C100.86 35.2944 100.715 35.928 100.715 36.654V36.852L107.427 35.5848C107.255 34.8192 106.873 34.1988 106.279 33.7236C105.685 33.2484 104.972 33.0108 104.14 33.0108ZM117.571 31.407C118.904 31.407 119.96 31.7964 120.739 32.5752C121.531 33.3408 121.927 34.4694 121.927 35.961V42H120.026V36.1788C120.026 35.1624 119.782 34.3968 119.293 33.882C118.805 33.3672 118.105 33.1098 117.194 33.1098C116.165 33.1098 115.353 33.4134 114.759 34.0206C114.165 34.6146 113.868 35.4726 113.868 36.5946V42H111.967V31.506H113.789V33.09C114.172 32.5488 114.686 32.133 115.333 31.8426C115.993 31.5522 116.739 31.407 117.571 31.407ZM130.969 41.3862C130.691 41.6238 130.348 41.8086 129.939 41.9406C129.53 42.0594 129.107 42.1188 128.672 42.1188C127.616 42.1188 126.797 41.835 126.217 41.2674C125.636 40.6998 125.345 39.888 125.345 38.832V29.2092H127.246V31.506H130.256V33.0702H127.246V38.7528C127.246 39.3204 127.385 39.756 127.662 40.0596C127.952 40.3632 128.362 40.515 128.89 40.515C129.47 40.515 129.965 40.35 130.375 40.02L130.969 41.3862ZM142.808 31.506V42H140.986V40.3368C140.564 40.9176 140.029 41.3598 139.383 41.6634C138.736 41.967 138.023 42.1188 137.244 42.1188C136.228 42.1188 135.317 41.8944 134.512 41.4456C133.707 40.9968 133.073 40.3698 132.611 39.5646C132.162 38.7462 131.938 37.809 131.938 36.753C131.938 35.697 132.162 34.7664 132.611 33.9612C133.073 33.156 133.707 32.529 134.512 32.0802C135.317 31.6314 136.228 31.407 137.244 31.407C137.997 31.407 138.69 31.5522 139.323 31.8426C139.957 32.1198 140.485 32.5356 140.907 33.09V31.506H142.808ZM137.403 40.4556C138.063 40.4556 138.663 40.3038 139.204 40.0002C139.746 39.6834 140.168 39.2478 140.472 38.6934C140.775 38.1258 140.927 37.479 140.927 36.753C140.927 36.027 140.775 35.3868 140.472 34.8324C140.168 34.2648 139.746 33.8292 139.204 33.5256C138.663 33.222 138.063 33.0702 137.403 33.0702C136.729 33.0702 136.122 33.222 135.581 33.5256C135.053 33.8292 134.631 34.2648 134.314 34.8324C134.01 35.3868 133.858 36.027 133.858 36.753C133.858 37.479 134.01 38.1258 134.314 38.6934C134.631 39.2478 135.053 39.6834 135.581 40.0002C136.122 40.3038 136.729 40.4556 137.403 40.4556ZM149.592 42.1188C148.576 42.1188 147.791 41.8416 147.236 41.2872C146.682 40.7196 146.405 39.9276 146.405 38.9112V27.3084H148.305V38.7528C148.305 39.3204 148.437 39.756 148.701 40.0596C148.979 40.3632 149.388 40.515 149.929 40.515C150.259 40.515 150.569 40.449 150.86 40.317L150.959 41.8812C150.523 42.0396 150.068 42.1188 149.592 42.1188Z" fill="white"/>
<path d="M59.0061 36.2903C63.002 31.8172 65 25.681 65 17.8817V17.0002L56.9775 17L56.9775 17.6237C56.9775 23.0717 55.7172 27.2294 53.1967 30.0968C50.7377 32.9642 47.1721 34.3979 42.5 34.3979C37.8279 34.3979 34.2316 32.9642 31.7111 30.0968C29.252 27.2294 28.0225 23.0717 28.0225 17.6237V17L20 17V17.8817C20 25.681 21.9979 31.8172 25.9939 36.2903C29.9898 40.7634 35.4918 43 42.5 43C49.5082 43 55.0102 40.7634 59.0061 36.2903Z" fill="white"/>
<path fill-rule="evenodd" clip-rule="evenodd" d="M28 10.6726V2L4.05887e-07 2L0 10.6726H28Z" fill="#12D7C2"/>
<path fill-rule="evenodd" clip-rule="evenodd" d="M65 10.6726V2L37 2L37 10.6726H65Z" fill="#5F5FFA"/>
</svg>
