<svg width="48" height="48" viewBox="0 0 48 48" fill="none" xmlns="http://www.w3.org/2000/svg">
<g clip-path="url(#clip0_2546_902)">
<path d="M30.6921 35.7215H30.7498L30.7786 35.6715L37.4935 24.0496L37.5224 23.9996L37.4935 23.9495L30.7778 12.3277L30.7489 12.2777H30.6912H17.2606H17.2029L17.174 12.3277L10.4583 23.9495L10.4294 23.9996L10.4583 24.0496L17.174 35.6715L17.2029 35.7215H17.2606H30.6921ZM36.2932 23.9996L30.1352 34.6565H17.8166L11.6586 23.9996L17.8166 13.3427H30.1352L36.2932 23.9996Z" fill="white" stroke="white" stroke-width="0.2"/>
<path d="M24.1199 29.5467C26.0325 29.5467 27.8076 28.5017 28.755 26.8436C29.7041 25.1824 29.7039 23.1036 28.7547 21.4425C27.8073 19.7847 26.0323 18.7396 24.1198 18.7396C22.2073 18.7396 20.4323 19.7845 19.4849 21.4424C18.5356 23.1037 18.5355 25.1825 19.4849 26.8438C20.4323 28.5017 22.2073 29.5467 24.1199 29.5467ZM24.1198 28.5669C22.5594 28.5669 21.1062 27.7133 20.3306 26.3559C19.5534 24.9959 19.5534 23.2904 20.3306 21.9303C21.1062 20.573 22.5594 19.7194 24.1198 19.7194C25.6802 19.7194 27.1333 20.573 27.909 21.9303C28.6861 23.2904 28.6861 24.9959 27.909 26.3559C27.1333 27.7133 25.6802 28.5669 24.1198 28.5669Z" fill="white" stroke="white" stroke-width="0.6"/>
<path d="M2.82656 23.9991C2.82656 35.6615 12.3142 45.15 23.9766 45.15C35.6389 45.15 45.1266 35.6623 45.1266 23.9991C45.1266 12.3377 35.638 2.85 23.9766 2.85C12.3151 2.85 2.82656 12.3368 2.82656 23.9991ZM3.55905 23.9991C3.55905 12.7412 12.7186 3.58249 23.9766 3.58249C35.2345 3.58249 44.3941 12.7412 44.3941 23.9991C44.3941 35.2579 35.2345 44.4175 23.9766 44.4175C12.7186 44.4175 3.55905 35.2579 3.55905 23.9991Z" fill="white" stroke="white" stroke-width="0.3"/>
</g>
<defs>
<clipPath id="clip0_2546_902">
<rect width="48" height="48" fill="white"/>
</clipPath>
</defs>
</svg>
