<svg width="48" height="48" viewBox="0 0 48 48" fill="none" xmlns="http://www.w3.org/2000/svg">
<path d="M39.2808 39.8382C39.34 26.9621 40.9787 21.2014 46.937 13.5885M35.9996 40.932L38.5792 43.0817C38.9766 43.4128 39.5608 43.3863 39.9265 43.0206L42.0151 40.932M8.65618 39.8381C8.59698 26.962 6.95829 21.2013 1 13.5884M11.9374 40.9319L9.35773 43.0816C8.9604 43.4127 8.37616 43.3862 8.01044 43.0205L5.92183 40.9319" stroke="white" stroke-linecap="round" stroke-linejoin="round"/>
<path d="M15.7064 42.7039C15.5846 33.8249 15.125 27.8148 13.7825 22.8089C12.4354 17.7859 10.2075 13.8023 6.6024 8.9586C6.39373 8.67824 6.52006 8.28772 6.83057 8.18047C13.5215 5.86942 18.7921 4.77378 23.9405 4.79072C29.0886 4.80766 34.1501 5.93711 40.4243 8.1268C40.7495 8.2403 40.8737 8.67031 40.623 8.95647C37.2286 12.8308 34.9803 16.7316 33.588 21.951C32.2004 27.1526 31.668 33.6463 31.6693 42.6966C31.6694 42.9813 31.4382 43.2094 31.1672 43.2094H16.208C15.9404 43.2094 15.7103 42.9856 15.7064 42.7039Z" stroke="white" stroke-linecap="round" stroke-linejoin="round"/>
</svg>
